<svg width="60" height="35" viewBox="0 0 60 35" fill="none" xmlns="http://www.w3.org/2000/svg">
<path d="M8.00027 2.80741C7.72675 5.05335 7.59 9.64919 7.59 16.5949C7.59 23.5407 7.74385 28.4069 8.05155 31.1935C9.59006 31.4014 11.0089 31.7134 12.3081 32.1293L12.1543 33.689C10.3764 33.3978 8.37635 33.2523 6.15405 33.2523C3.96594 33.2523 2.00007 33.4186 0.256419 33.7514L0.0512837 32.1293C1.00858 31.755 2.08554 31.443 3.28216 31.1935C3.58986 28.1989 3.74371 23.9566 3.74371 18.4665V15.5344C3.74371 10.0443 3.57277 5.80199 3.23088 2.80741C2.03426 2.55787 0.957297 2.24593 0 1.87161L0.205135 0.249548C1.94878 0.58228 3.91466 0.748645 6.10277 0.748645C8.32506 0.748645 10.3251 0.603076 12.103 0.311938L12.2568 1.87161C10.9576 2.28752 9.53878 2.59946 8.00027 2.80741Z" fill="black"/>
<path d="M40.3395 0.873418L28.5442 0.436711C25.4672 0.436711 23.1594 0.998194 21.6209 2.12116C20.0824 3.20253 19.3131 5.19892 19.3131 8.11031C19.3131 10.1067 19.826 11.8743 20.8517 13.4132C21.8431 14.9521 23.1594 16.0958 24.8005 16.8445L19.0567 31.1311C17.8943 31.3806 16.8002 31.6718 15.7746 32.0045L15.9797 33.689C17.4156 33.3978 19.0396 33.2523 20.8517 33.2523C22.6295 33.2523 24.0312 33.3562 25.0569 33.5642L25.2621 32.566C24.8176 32.0253 24.5954 31.1311 24.5954 29.8834C24.5954 27.3463 25.792 23.2703 28.1852 17.6555C28.9032 17.4892 29.7408 17.406 30.6981 17.406L30.5956 15.5967H30.0827C26.0484 15.5967 24.0312 13.3508 24.0312 8.85895C24.0312 4.69982 25.7578 2.62025 29.2109 2.62025C30.3733 2.62025 31.4161 2.84901 32.3392 3.30651C32.5785 6.05154 32.6982 10.7514 32.6982 17.406C32.6982 24.0606 32.5444 28.6564 32.2367 31.1935C30.7323 31.4014 29.3306 31.7134 28.0314 32.1293L28.1852 33.689C29.9631 33.3978 31.9631 33.2523 34.1854 33.2523C36.3735 33.2523 38.3394 33.4186 40.0831 33.7514L40.2882 32.1293C39.3309 31.755 38.2539 31.443 37.0573 31.1935C36.7154 28.0741 36.5445 23.2288 36.5445 16.6573C36.5445 10.0443 36.6983 5.46926 37.006 2.93219C38.3394 2.3915 39.4506 2.12116 40.3395 2.12116V0.873418Z" fill="black"/>
<path d="M46.2559 28.5108C47.8286 29.3011 49.3843 29.6962 50.9228 29.6962C52.4613 29.6962 53.6921 29.2595 54.6152 28.3861C55.5383 27.5127 55.9999 26.2649 55.9999 24.6429C55.9999 22.9792 54.0682 20.9204 50.2048 18.4665C48.7347 17.5515 47.3842 16.4494 46.1534 15.16C44.9568 13.8291 44.3584 12.519 44.3584 11.2297C44.3584 9.02532 45.3158 6.80018 47.2303 4.55425C49.1449 2.30832 51.1108 0.790237 53.128 0C55.658 0 57.9486 0.311936 60 0.935807V2.05877C58.5641 3.80561 57.7606 6.19711 57.5897 9.23327H56.3076C56.3076 8.06872 56.2221 6.61302 56.0511 4.86619C54.8545 4.20073 53.5724 3.86799 52.2049 3.86799C50.8373 3.86799 49.692 4.24232 48.7689 4.99096C47.8799 5.69801 47.4355 6.73779 47.4355 8.11031C47.4355 9.06691 48.0338 10.1067 49.2304 11.2297C50.4612 12.3526 51.7946 13.3508 53.2305 14.2242C54.6665 15.0977 55.9828 16.179 57.1794 17.4684C58.4102 18.7577 59.0256 20.047 59.0256 21.3363C59.0256 23.8318 58.1196 26.3273 56.3076 28.8228C54.4955 31.2767 52.4955 33.0027 50.3074 34.0009C48.1534 34.0009 46.1363 33.689 44.2559 33.0651C43.7089 33.3562 43.1447 33.8345 42.5635 34.5L41.6404 33.689C43.555 31.1519 44.6149 28.0118 44.82 24.2685H46.1021C46.1021 25.7242 46.1534 27.1383 46.2559 28.5108Z" fill="black"/>
</svg>
